<?xml version="1.0" encoding="UTF-8"?>
<svg id="Layer_1" data-name="Layer 1" xmlns="http://www.w3.org/2000/svg" viewBox="0 0 16 16">
  <defs>
    <style>
      .cls-1 {
        fill: #e53012;
      }

      .cls-2 {
        fill: #fff;
      }
    </style>
  </defs>
  <path class="cls-1" d="M16,8c0,4.42-3.58,8-8,8S0,12.42,0,8,3.58,0,8,0s8,3.58,8,8Z"/>
  <path class="cls-2" d="M6.63,11.08c-.1,0-.2-.04-.27-.12-.16-.16-.16-.4,0-.55l2.44-2.44-2.44-2.4c-.16-.15-.16-.4,0-.55.15-.16.4-.16.55,0l2.72,2.67c.07.07.12.17.12.27s-.04.2-.12.28l-2.72,2.72c-.08.08-.18.12-.27.12h-.02Z"/>
</svg>